<?xml version="1.0" encoding="UTF-8"?> <svg xmlns="http://www.w3.org/2000/svg" width="64" height="46" viewBox="0 0 64 46" fill="none"><path d="M21.7104 13.0825C21.7573 14.3485 21.2415 15.5677 20.8664 16.74C20.3037 18.2874 19.6472 19.8348 19.3659 21.5228C19.2721 22.1324 19.2252 22.742 19.4597 23.3047C19.6472 23.7267 20.2099 23.8674 20.6319 23.8205C21.1946 23.6798 21.5698 23.2109 21.898 22.7889C22.8358 21.5228 23.4923 20.1161 24.1019 18.7094C24.1019 19.6941 24.0081 20.8195 24.6646 21.6635C25.1804 22.2262 26.1182 22.0386 26.6809 21.6166C27.8531 20.7257 28.5565 19.4128 29.3068 18.1467C29.213 18.897 28.9316 19.6941 29.3068 20.4444C29.5881 21.1008 30.6197 21.2884 31.0417 20.6788C31.9327 19.6003 32.5891 18.3343 33.2925 17.1151C33.2456 17.9591 33.1049 18.897 33.5738 19.6472C33.8552 20.0692 34.4648 20.1161 34.8399 19.8348C35.8715 19.0376 36.3873 17.7716 37.0438 16.6931C36.7155 18.2405 35.9184 19.8817 36.4342 21.476C36.6217 22.1324 37.2782 22.3669 37.8878 22.5076C37.8878 21.0539 38.0285 19.5534 38.3567 18.1467C39.2476 14.2548 40.8888 10.5973 42.4831 6.98666C45.7655 6.47086 49.0947 6.14262 52.3771 5.76749C53.1274 5.48615 53.4556 4.59522 53.69 3.84496C52.7991 3.79807 51.8613 3.93875 50.9704 4.03253C48.4383 4.36076 45.8593 4.78278 43.3272 5.25169C43.6085 4.59522 43.9367 4.03253 44.265 3.37606C43.7492 3.23538 43.1865 3.09471 42.6707 3.28227C41.7329 3.6574 41.5922 4.82967 41.0764 5.62682C37.7471 6.28329 34.4179 6.93977 31.1355 7.73691C30.1039 8.01826 29.0723 8.25271 28.0876 8.67473C27.7125 8.8154 27.5718 9.23742 27.3842 9.56566C31.6513 8.48717 36.0122 7.97137 40.3261 7.268C39.4821 9.3312 38.7318 11.4413 37.9816 13.5514C37.794 14.2548 37.2782 14.7706 36.9031 15.3801C36.2466 16.2711 35.6839 17.3496 34.6992 17.9591C34.6992 17.162 34.8868 16.4117 35.0744 15.6615C35.4495 14.2079 35.9184 12.7073 36.9031 11.5351C36.1528 11.3944 35.5433 11.8633 35.1212 12.426C35.4495 11.582 35.7777 10.5973 35.4026 9.70633C35.1212 9.09675 34.3241 9.09675 33.8552 9.42498C32.7767 10.1283 32.1671 11.3475 31.6044 12.426C31.1355 13.3169 30.9011 14.3016 30.2915 15.0988C29.5412 16.1304 28.8379 17.162 28.0407 18.0998C27.5718 18.6625 27.056 19.2252 26.3057 19.4596C25.7431 18.4749 26.212 17.3027 26.3995 16.2711C26.8215 16.318 27.2905 16.4586 27.7125 16.2711C28.5096 15.9897 29.0723 15.2395 29.4943 14.5361C30.1039 13.4576 30.5259 12.2853 30.6666 11.0193C30.7135 10.4097 30.3384 9.847 29.7288 9.70633C28.8847 9.56566 28.1814 10.1283 27.6656 10.691C26.6809 11.8633 25.9775 13.27 25.4148 14.7237C24.9928 15.9897 24.2425 17.0682 23.5861 18.1936C23.0703 18.9907 22.6014 19.8817 21.898 20.4912C21.9918 19.2252 22.6014 18.0529 22.8827 16.8338C23.1641 15.5677 23.6799 14.3016 23.4923 13.0356C23.4454 12.426 22.9296 12.0509 22.4138 11.7695C22.9296 10.5973 23.5392 9.47188 23.8205 8.20582C23.9612 7.59624 24.0081 6.89287 23.7267 6.33018C23.4923 5.90816 23.0703 5.53304 22.5545 5.67371C21.8042 5.90817 21.3822 6.61153 20.9602 7.22111C20.3506 8.11204 19.7879 9.14364 19.741 10.269C19.741 11.0662 20.4913 11.5351 21.054 11.9571C19.1314 14.9581 17.1151 17.9591 14.7706 20.6319C13.5514 21.9918 12.2854 23.3985 10.5504 24.1018C9.89392 24.3832 8.9561 24.4301 8.4872 23.7267C7.9245 22.8358 7.9245 21.7104 8.01829 20.7257C8.25274 18.0998 9.09678 15.5677 10.0346 13.0825C9.4719 12.9418 8.9561 12.8949 8.39341 12.8949C10.0346 12.1915 11.9102 11.4882 12.8012 9.75322C12.3323 9.89389 11.8633 10.0815 11.3944 10.2221C12.3791 8.2996 13.5514 6.47086 15.0988 4.92346C15.896 4.1732 16.7869 3.46984 17.8654 3.18849C18.2874 3.04782 18.897 3.23538 18.897 3.79807C18.9908 4.82967 18.5219 5.76749 18.2405 6.7522C18.0061 6.7522 17.6778 6.65842 17.4903 6.89287C16.5524 7.73691 15.9429 8.90918 15.5208 10.0815C15.2395 11.0193 15.005 12.1447 15.6146 12.9887C16.5993 12.6136 17.1151 11.6289 17.7247 10.8317C19.2252 8.53406 20.4444 6.00195 21.1009 3.32916C21.2884 2.39135 21.4291 1.21907 20.8195 0.421926C20.163 -0.187656 19.1783 -0.0938737 18.3812 0.09369C16.5055 0.656381 14.9581 1.96933 13.6452 3.32916C11.582 5.48615 9.9877 8.01826 8.67476 10.691C8.58098 11.0193 8.15896 11.0662 7.87761 11.1599C6.61156 11.3944 5.3455 11.6757 4.07945 11.7695C2.7665 11.8633 1.45356 11.9571 0.1875 11.582C0.234391 12.426 0.7033 13.2232 1.31288 13.7858C1.68801 14.161 2.20381 14.4892 2.7665 14.4423C4.40768 14.2079 6.00198 13.6921 7.54938 13.1763C6.47088 15.8959 5.8613 18.8032 5.72063 21.7573C5.72063 23.3985 5.72063 25.1334 6.65845 26.5402C7.22114 27.478 8.39341 28.0876 9.5188 27.9C10.8786 27.6187 12.004 26.6808 13.0356 25.7899C14.0672 24.8052 15.005 23.7736 15.8491 22.6951C17.7716 20.2099 19.4597 17.584 20.9602 14.8174C21.2884 14.2079 21.5698 13.5983 21.9449 13.0356L21.7104 13.0825ZM32.2609 14.583C32.8236 13.3169 33.3863 12.0509 34.2772 10.9724H34.7461C34.8399 11.7695 34.4179 12.5198 34.1365 13.2232C34.1365 13.5514 34.2772 13.9265 33.9959 14.2079C33.0112 15.6146 32.2609 17.2089 31.0417 18.3812C31.2293 17.0682 31.792 15.8022 32.3078 14.583H32.2609ZM29.3068 11.2068C29.1192 12.5198 28.6034 13.7858 27.7125 14.7706C27.4311 15.0519 27.056 15.1926 26.6809 15.3332C27.2436 13.7858 27.9469 12.1915 29.3537 11.2068H29.3068ZM21.6635 8.86229C21.898 8.44028 22.2262 8.11204 22.6483 7.83069C22.32 9.04986 21.9449 10.3159 21.1946 11.3475C20.8195 10.5035 21.2415 9.61255 21.6635 8.86229ZM53.5494 14.9112C53.6432 15.5677 53.9714 16.2242 54.5341 16.6462C55.3781 17.2558 56.4566 17.3027 57.3944 16.9744C58.8949 16.4586 60.1141 15.3801 61.1457 14.161C61.9429 13.1763 62.6462 12.0978 62.9745 10.8317C63.0682 10.3628 63.1151 9.80011 62.8338 9.37809C62.5993 9.14364 62.2711 9.14364 61.9429 9.04986C62.0366 9.42498 62.1773 9.847 61.9897 10.2221C61.5677 11.2537 60.8175 12.1447 60.0672 12.8949C59.2232 13.6921 58.2854 14.4423 57.16 14.8174C56.5035 15.0519 55.7064 14.9112 55.3312 14.3016C54.8623 13.27 55.3312 12.1915 55.6595 11.2068C56.1284 11.5351 56.738 11.7695 57.3007 11.5351C58.5667 11.0193 59.5045 9.847 60.2079 8.67473C60.7237 7.83069 61.1926 6.84598 60.9581 5.86127C60.8644 5.2048 60.3017 4.54833 59.5983 4.64211C58.6605 4.82967 58.004 5.48615 57.3475 6.14262C55.847 7.64313 54.7216 9.47188 54.0183 11.4413C53.6432 12.5198 53.3618 13.6921 53.5494 14.8174V14.9112ZM58.6605 6.89287C59.0356 6.51775 59.5045 6.2364 60.0203 6.09573C59.8797 7.22111 59.0825 8.15893 58.426 9.04986C57.7696 9.75322 57.1131 10.6441 56.0815 10.691C56.7849 9.3312 57.6289 8.01826 58.7074 6.89287H58.6605ZM53.4087 6.51775C52.5647 6.70531 51.9551 7.36178 51.4393 7.97137C50.1263 9.51877 49.1416 11.3006 48.11 13.0356C48.3445 12.1447 48.7196 11.3006 49.0947 10.4097C49.423 9.65944 49.9857 9.04986 50.4546 8.39338C50.8297 7.83069 51.3924 7.36178 51.4393 6.65842C50.8766 6.65842 50.2201 6.61153 49.7043 6.98666C49.0947 8.01826 48.7665 9.19053 48.0162 10.1283C47.266 11.1131 46.5626 12.1916 45.8593 13.1763C46.4688 11.1599 47.1722 9.09675 48.3445 7.31489C47.8287 7.17422 47.266 6.93977 46.7502 7.22111C46.422 7.31489 46.2813 7.64313 46.1875 7.92447C45.531 9.47188 44.687 10.8786 43.7961 12.2853C43.3272 13.0356 42.8582 13.7858 42.2487 14.3954C42.0142 14.6299 41.686 14.7237 41.4046 14.8174C41.4046 14.3954 41.4984 13.9734 41.6391 13.5983C42.2487 11.6757 43.1865 9.847 43.9836 8.01826C43.6085 8.01826 43.2334 7.92447 42.9051 8.11204C42.5769 8.2996 42.4362 8.72162 42.2487 9.04986C41.264 11.1131 40.2792 13.2232 39.8103 15.4739C39.6697 16.2242 39.5759 17.1151 40.1386 17.7247C40.7482 17.9591 41.3108 17.4433 41.686 17.0213C42.8582 15.6615 43.7023 14.0672 44.687 12.5667C44.4525 13.5514 44.0774 14.4892 43.7961 15.427C43.6085 15.8959 43.5616 16.4117 43.1865 16.7869C42.2487 17.8185 41.2171 18.8032 39.951 19.4596C39.3414 19.741 38.7318 19.8817 38.0754 20.1161C38.3098 20.4444 38.5912 20.6788 38.9194 20.9602C39.1539 21.9918 39.2008 23.164 39.951 24.0081C40.2324 24.3832 40.795 24.477 41.1702 24.2425C41.8735 23.8205 42.2487 23.0234 42.6238 22.32C43.5616 20.3506 44.265 18.2405 44.9214 16.1773L44.3119 16.3648C45.2966 15.1926 46.1406 13.9265 47.0784 12.7542C46.2344 14.9112 45.4372 17.162 44.8277 19.4128C44.6401 20.0692 44.5932 20.8195 44.9214 21.4291C45.2497 21.9918 45.8124 22.32 46.3282 22.6482C46.422 20.7257 46.7033 18.8032 47.1253 16.9275C47.4067 15.9428 48.0631 15.0988 48.4852 14.2079C48.7665 14.8174 49.0947 15.6146 49.845 15.7553C50.6421 15.9428 51.3455 15.2864 51.7675 14.7237C52.7522 13.4107 53.4087 11.9102 53.9714 10.3628C54.2996 9.42498 54.6279 8.39338 54.4872 7.36178C54.4403 6.84598 53.9714 6.42397 53.4556 6.56464L53.4087 6.51775ZM41.3108 21.2415C41.0764 21.5228 40.795 21.898 40.373 21.8042C39.9979 21.5697 39.8572 21.1477 39.6697 20.7726C40.8888 20.1161 41.8266 19.1314 42.8114 18.1467C42.4362 19.2252 42.0142 20.3037 41.3577 21.1946L41.3108 21.2415ZM52.2833 10.6441C51.8613 11.6757 51.3924 12.6605 50.689 13.5045C50.4077 13.8327 50.0326 14.2079 49.5636 14.161C49.1885 13.9265 49.0947 13.5045 48.9541 13.1294C49.7512 11.8164 50.5484 10.5035 51.4393 9.28431C51.8613 8.72162 52.2364 8.11204 52.9398 7.87758C52.9398 8.8154 52.6116 9.75322 52.2833 10.5973V10.6441ZM55.6126 18.1467C54.159 19.4128 53.3149 21.2415 52.6116 23.0234C52.2364 22.5076 51.9082 21.898 52.002 21.2415C52.1427 19.9754 52.7991 18.8032 53.5025 17.7716C54.2058 17.3964 54.9561 17.8654 55.6126 18.1936V18.1467ZM63.4434 17.9591C62.5524 18.7094 61.5208 19.319 60.3955 19.741C58.3323 20.6319 56.1284 21.2415 53.9245 21.6635C54.5341 22.0386 55.2843 22.1793 55.9877 22.2262C55.1906 23.0234 54.6748 24.0081 54.1121 24.9928C52.9398 26.8215 51.8613 28.6503 50.5484 30.3852C50.2201 30.8072 49.845 31.2293 49.3761 31.4637C49.3761 31.0417 49.3761 30.5728 49.5168 30.1508C50.1263 28.0407 51.1579 26.0713 52.0958 24.055C51.7206 23.9612 51.2986 23.8205 50.9235 23.9612C50.5484 24.2425 50.3139 24.6645 50.0794 25.0397C49.3292 26.3995 48.8134 27.8531 48.3914 29.3067C48.2507 29.8694 47.9694 30.3383 47.6411 30.8072C47.2191 31.4637 46.844 32.1671 46.1406 32.4953C46.0937 32.1202 46.0468 31.6982 46.1406 31.323C46.4688 29.0723 47.266 26.9153 48.0631 24.7583C48.9541 22.6013 49.7512 20.4444 51.0173 18.4749C50.5952 18.0529 49.7981 17.7716 49.423 18.428C47.9225 20.585 47.0315 23.0702 45.9999 25.4617C45.8124 24.8521 45.7186 24.1018 45.1559 23.7267C44.687 23.3985 44.0774 23.7267 43.6554 24.055C42.9051 24.7114 42.3893 25.5555 41.8735 26.4464C41.1702 27.8062 40.5606 29.2598 40.0448 30.7135C39.6228 32.214 38.5912 33.5269 37.3251 34.4179C37.3251 33.5738 37.5596 32.7767 37.7471 31.9795C38.1692 30.479 38.5912 28.8847 39.6697 27.7124C39.107 27.5249 38.3567 27.478 37.9816 28.0407C36.7624 29.7288 35.7777 31.6044 34.5585 33.2456C33.9959 33.8552 33.527 34.6054 32.8236 35.0274C32.636 34.0896 33.1049 33.2456 33.3863 32.4015C33.9021 30.8541 34.6523 29.4005 35.3088 27.9469C34.9806 27.9469 34.5586 27.7593 34.2303 27.9469C33.8083 28.1814 33.527 28.6503 33.2925 29.0723C32.7298 30.2446 32.3078 31.4637 31.8858 32.6829C31.6982 33.2456 31.3231 33.7145 31.0417 34.1834C30.6666 34.793 30.2446 35.4026 29.7288 35.8715H29.3537C29.3068 35.215 29.3537 34.6054 29.4943 34.0427C30.057 31.6513 30.9948 29.4005 31.8858 27.1498C32.636 26.8684 33.4332 26.634 34.2303 26.4464C35.9184 26.0244 37.6534 25.5555 39.3883 25.7899C39.0601 24.899 38.2629 24.1018 37.2313 24.1487C35.6839 24.2425 34.1834 24.899 32.7298 25.2741C33.1987 24.2425 33.7614 23.2109 34.2772 22.2262C33.7145 22.0386 33.0112 21.898 32.5422 22.32C31.9327 23.4454 31.4638 24.6645 30.9011 25.7899C30.7604 26.0713 30.479 26.1182 30.2446 26.2119C29.4474 26.4933 28.6972 26.8215 27.9469 27.1029C28.6034 26.165 29.4005 25.1803 29.4943 24.0081C29.4474 23.0702 28.4627 22.32 27.5718 22.4138C26.3995 22.4607 25.321 23.0234 24.3363 23.6329C22.5545 24.8052 20.9602 26.3526 20.0224 28.2751C19.2721 29.8225 19.2721 31.7451 20.163 33.1987C20.8195 34.0427 21.476 34.8868 22.3669 35.4963C22.9296 35.9184 23.5392 36.4342 23.633 37.1844C23.6799 38.0285 23.1172 38.7787 22.5545 39.3414C21.1009 40.7012 19.319 41.6391 17.4434 42.2486C17.6778 42.7175 17.9592 43.2333 18.4281 43.4678C19.0845 43.8898 19.9755 43.8898 20.7257 43.7023C22.4138 43.2802 23.9143 42.1549 25.0866 40.8888C25.8837 39.951 26.6809 38.8725 26.6809 37.6064C26.5871 36.2935 25.5086 35.4026 24.477 34.793C23.7267 34.371 23.0703 33.8552 22.4138 33.2925C21.476 32.4015 21.1946 30.901 21.6635 29.7288C22.1793 28.2751 23.3047 27.1498 24.477 26.165C25.4148 25.4617 26.3995 24.6645 27.6187 24.5239C27.6187 24.899 27.6187 25.2741 27.4311 25.6024C26.8684 26.6808 26.212 27.6656 25.4148 28.6034C24.899 29.213 24.5239 30.0101 24.7115 30.8072C25.1335 30.3383 25.5086 29.8694 26.0244 29.5412C27.2436 28.744 28.6034 28.1814 30.0101 27.7124C29.1661 29.8225 28.3689 31.9326 27.7125 34.0896C27.478 35.1212 27.2436 36.1997 27.2905 37.2782C27.2905 37.8409 27.5249 38.4505 28.0407 38.6849C28.5096 38.9194 29.0254 38.6849 29.4005 38.3567C30.1977 37.6064 30.7604 36.6217 31.2293 35.637C31.2293 36.3873 31.2293 37.372 32.0733 37.7002C32.4485 37.8878 32.7767 37.5595 33.0112 37.3251C34.1365 36.059 34.793 34.5116 35.6839 33.1049C35.8715 32.7298 36.0591 32.3547 36.2935 32.0264C36.0122 33.2456 35.5901 34.4647 35.9184 35.7308C36.0591 36.2466 36.5749 36.7624 37.1376 36.5748C38.0285 36.1528 38.4974 35.215 39.0132 34.4179C39.1539 34.8399 39.2476 35.3088 39.6228 35.5432C39.9979 35.8715 40.6544 35.8715 40.9826 35.4963C41.5922 34.8399 42.0142 33.9958 42.5769 33.2456C43.3272 32.1202 43.8898 30.8541 44.5932 29.6819C44.4056 30.901 44.0305 32.1671 44.1712 33.3862C44.265 33.8552 44.3588 34.4179 44.8277 34.6054C45.2497 34.8399 45.7655 34.6054 46.0937 34.3241C46.7502 33.7145 47.3598 33.0111 47.7818 32.214C47.7818 32.9173 47.9225 33.8083 48.7196 33.9958C49.1885 33.9021 49.5636 33.48 49.9388 33.1518C50.9235 31.8388 51.6268 30.3852 52.3771 28.9785C52.0489 30.3383 51.7206 31.8857 52.4709 33.1518C53.0805 33.8552 54.2059 34.1365 55.0499 33.6676C55.9408 33.3862 56.5504 32.636 57.1131 31.8857C58.4729 29.9632 59.4576 27.7593 60.2079 25.5086C60.583 24.1487 61.0519 22.742 60.6299 21.3353C61.4271 21.1008 62.3649 20.9602 63.0682 20.4912C63.6778 19.741 63.7247 18.7094 63.4434 17.8185V17.9591ZM45.2497 27.1498C45.2028 27.6656 44.8277 27.9938 44.5932 28.4158C43.7023 29.7288 42.9051 31.0886 41.9673 32.3546C41.7329 32.6829 41.4515 32.9642 41.1233 33.2456C41.4984 31.1824 42.4831 29.2598 43.374 27.3842C43.7961 26.6808 44.1712 25.6492 45.109 25.6024C45.2497 26.1182 45.3435 26.634 45.2497 27.1498ZM59.6452 23.4454C59.4107 24.8052 58.8012 26.1182 58.1916 27.3373C57.4882 28.6034 56.738 29.8694 55.6126 30.8541C55.2374 31.1355 54.7216 31.5106 54.2527 31.2293C53.9714 30.8541 54.0183 30.3852 54.0652 29.9163C54.2059 28.8378 54.581 27.8531 54.9561 26.8215L55.6595 26.9153C56.1284 25.1334 56.8317 23.3047 58.2385 22.0855C58.6136 21.8511 59.0356 21.8511 59.4576 21.7573C59.5983 22.2731 59.6921 22.8358 59.5983 23.3985L59.6452 23.4454ZM53.2211 35.6839C51.8613 35.5901 50.5015 35.637 49.1885 35.8715C44.0305 36.7624 39.0132 38.3567 34.1834 40.4668C31.1824 41.8266 28.2752 43.5616 26.0244 46.0468C25.6024 45.1559 25.5555 44.0774 26.0244 43.1396C26.5402 41.8735 27.9 41.2639 29.0254 40.7012C33.4332 38.6849 38.0754 37.1844 42.7645 36.0121C45.3904 35.4026 48.0162 34.7461 50.689 34.6992C51.58 34.6992 52.7053 34.7461 53.2211 35.637V35.6839Z" fill="white"></path></svg> 